<?xml version="1.0" encoding="UTF-8"?>
<svg id="Layer_2" data-name="Layer 2" xmlns="http://www.w3.org/2000/svg" viewBox="0 0 449.64 49.97">
  <defs>
    <style>
      .cls-1 {
        fill: #0e4d27;
      }
    </style>
  </defs>
  <g id="Layer_1-2" data-name="Layer 1">
    <g>
      <path class="cls-1" d="m4.39,49.68c-.58,0-1.16-.1-1.76-.29-.6-.19-1.1-.65-1.51-1.37-.41-.72-.61-1.82-.61-3.31,0-.96.1-2.22.29-3.78.19-1.56.46-3.59.79-6.08.24-1.58.52-3.71.83-6.37.31-2.66.47-5.46.47-8.39,0-1.3-.05-2.68-.14-4.14-.1-1.46-.29-2.79-.58-4-.58.14-1.01.22-1.3.22s-.5-.08-.65-.25-.22-.49-.22-.97c0-.96.11-1.93.32-2.92.22-.98.56-1.81,1.04-2.48.48-.67,1.04-1.15,1.69-1.44.65-.29,1.33-.48,2.05-.58,1.2-.14,2.72-.28,4.57-.4,1.85-.12,3.79-.23,5.83-.32,2.04-.1,3.9-.14,5.58-.14,2.26,0,3.92.02,5,.07,1.08.05,1.91.12,2.48.22,1.25.19,1.87.86,1.87,2.02,0,.82-.16,1.55-.47,2.2-.31.65-.68,1.24-1.12,1.76-.53.77-1.09,1.31-1.69,1.62-.6.31-1.38.42-2.34.32-.82-.1-1.93-.18-3.35-.25-1.42-.07-3.04-.11-4.86-.11-.77,0-1.78.02-3.02.07-1.25.05-2.57.12-3.96.22-.05,1.63-.19,3.49-.43,5.58-.24,2.09-.5,4.21-.79,6.37,1.3-.1,2.86-.18,4.68-.25,1.82-.07,3.7-.13,5.62-.18,1.92-.05,3.62-.07,5.11-.07.86,0,1.49.11,1.87.32.38.22.58.68.58,1.4,0,.82-.2,1.69-.61,2.63-.41.94-.94,1.74-1.58,2.41-.65.67-1.33.98-2.05.94-1.2-.1-2.89-.17-5.08-.22-2.18-.05-4.48-.07-6.88-.07h-2.3c-.1,1.06-.18,2.1-.25,3.13-.07,1.03-.11,1.98-.11,2.84,0,1.68.17,3.16.5,4.43.33,1.27.98,2.37,1.94,3.28.62.62.94,1.34.94,2.16,0,1.06-.6,2.02-1.8,2.88-1.2.86-2.74,1.3-4.61,1.3Z"/>
      <path class="cls-1" d="m38.38,49.9c-3.65,0-6.49-1.04-8.53-3.13-2.04-2.09-3.06-5-3.06-8.75,0-3.41.74-6.5,2.23-9.29,1.49-2.78,3.49-5,6.01-6.66,2.52-1.66,5.29-2.48,8.32-2.48s5.18.71,6.91,2.12,2.59,3.3,2.59,5.65c0,1.87-.58,3.6-1.73,5.18-1.15,1.58-2.69,2.84-4.61,3.78-1.92.94-4.06,1.4-6.41,1.4-2.88,0-5.23-.65-7.06-1.94.05,2.21.8,3.98,2.27,5.33,1.46,1.34,3.35,2.02,5.65,2.02,1.39,0,2.82-.25,4.28-.76,1.46-.5,2.72-1.19,3.78-2.05.67-.58,1.3-.86,1.87-.86.48,0,.88.16,1.19.47.31.31.47.71.47,1.19,0,1.06-.91,2.45-2.74,4.18-3.22,3.07-7.03,4.61-11.45,4.61Zm1.08-16.92c1.73,0,3.17-.36,4.32-1.08s1.73-1.63,1.73-2.74c0-.91-.38-1.62-1.15-2.12-.77-.5-1.82-.76-3.17-.76-1.78,0-3.32.47-4.64,1.4-1.32.94-2.27,2.24-2.84,3.92.67.43,1.54.77,2.59,1.01,1.06.24,2.11.36,3.17.36Z"/>
      <path class="cls-1" d="m61.99,49.75c-.77,0-1.38-.13-1.84-.4-.46-.26-.61-.71-.47-1.33.53-2.06.97-4.16,1.33-6.3.36-2.13.54-4.19.54-6.16,0-2.54-.16-4.4-.47-5.58-.31-1.17-.73-1.99-1.26-2.45-.53-.46-1.18-.8-1.94-1.04-.34-.14-.64-.34-.9-.58-.26-.24-.4-.58-.4-1.01,0-.67.26-1.42.79-2.23.53-.82,1.27-1.52,2.23-2.12.96-.6,2.06-.9,3.31-.9,1.63,0,2.77.57,3.42,1.69.65,1.13.97,2.6.97,4.43.86-1.92,1.93-3.44,3.2-4.57,1.27-1.13,2.87-1.69,4.79-1.69,1.3,0,2.38.29,3.24.86.86.58,1.3,1.51,1.3,2.81s-.42,2.51-1.26,3.64c-.84,1.13-1.69,1.69-2.56,1.69-.14,0-.31-.02-.5-.07-.19-.05-.36-.17-.5-.36-.62-.77-1.39-1.15-2.3-1.15-1.39,0-2.62.91-3.67,2.74-1.06,1.82-1.63,4.34-1.73,7.56.05,1.2.08,2.42.11,3.67.02,1.25.04,2.16.04,2.74,0,1.78-.49,3.24-1.48,4.39-.98,1.15-2.32,1.73-4,1.73Z"/>
      <path class="cls-1" d="m86.11,49.75c-1.73,0-2.5-.58-2.3-1.73.53-2.06.97-4.16,1.33-6.3.36-2.13.54-4.19.54-6.16,0-2.54-.16-4.4-.47-5.58-.31-1.17-.73-1.99-1.26-2.45-.53-.46-1.18-.8-1.94-1.04-.34-.14-.64-.34-.9-.58-.26-.24-.4-.58-.4-1.01,0-.67.26-1.42.79-2.23.53-.82,1.28-1.52,2.27-2.12.98-.6,2.1-.9,3.35-.9,1.63,0,2.76.57,3.38,1.69.62,1.13.94,2.6.94,4.43,0,1.2-.12,2.54-.36,4.03-.24,1.49-.48,2.83-.72,4.03l.22.07c.96-2.54,2.12-4.91,3.49-7.09,1.37-2.18,2.96-3.95,4.79-5.29,1.82-1.34,3.94-2.02,6.34-2.02,2.54,0,4.49.77,5.83,2.3,1.34,1.54,2.02,3.46,2.02,5.76,0,.96-.11,1.87-.32,2.74-.22.86-.44,1.7-.68,2.52-.24.77-.44,1.56-.61,2.38-.17.82-.25,1.63-.25,2.45,0,2.74,1.3,4.58,3.89,5.54.67.29,1.01.72,1.01,1.3,0,.43-.14,1.06-.43,1.87s-.82,1.57-1.58,2.27c-.77.7-1.9,1.04-3.38,1.04-1.92,0-3.41-.68-4.46-2.05-1.06-1.37-1.58-3.11-1.58-5.22,0-1.2.13-2.41.4-3.64.26-1.22.54-2.36.83-3.42.19-.82.37-1.62.54-2.41.17-.79.25-1.5.25-2.12,0-2.21-1.15-3.31-3.46-3.31-1.97,0-3.7.73-5.18,2.2-1.49,1.46-2.76,3.3-3.82,5.51-1.06,2.21-1.92,4.44-2.59,6.7v1.73c0,1.78-.49,3.24-1.48,4.39-.98,1.15-2.32,1.73-4,1.73Z"/>
      <path class="cls-1" d="m129.82,49.97c-1.34,0-2.48-.4-3.42-1.19s-1.48-2.27-1.62-4.43c-.1-1.63-.3-3.46-.61-5.47-.31-2.02-.68-3.91-1.12-5.69-.43-1.78-.94-3.12-1.51-4.03-.34-.53-.71-.92-1.12-1.19-.41-.26-1.02-.44-1.84-.54-.86-.05-1.3-.67-1.3-1.87,0-1.97.53-3.42,1.58-4.36,1.06-.94,2.26-1.4,3.6-1.4,1.44,0,2.62.47,3.53,1.4.91.94,1.62,2.18,2.12,3.74.5,1.56.86,3.3,1.08,5.22.22,1.92.32,3.86.32,5.83,0,.72-.01,1.43-.04,2.12-.02.7-.04,1.38-.04,2.05,0,.48.1.88.29,1.19.19.31.67.47,1.44.47,1.06,0,2.3-.28,3.74-.83s2.7-1.48,3.78-2.77c1.08-1.3,1.62-3.02,1.62-5.18,0-1.1-.17-2.03-.5-2.77-.34-.74-.79-1.45-1.37-2.12-.19-.24-.36-.48-.5-.72-.14-.24-.22-.53-.22-.86,0-.91.37-1.64,1.12-2.2.74-.55,1.58-.96,2.52-1.22.94-.26,1.72-.4,2.34-.4s1.12.16,1.48.47c.36.31.64.92.83,1.84.19.62.34,1.31.43,2.05.1.75.14,1.6.14,2.56,0,1.49-.06,2.69-.18,3.6-.12.91-.25,1.73-.4,2.45-.14.62-.25,1.24-.32,1.84-.07.6-.11,1.31-.11,2.12,0,.86.17,1.44.5,1.73.33.29.86.43,1.58.43,2.74,0,4.97-.95,6.7-2.84,1.73-1.9,2.59-4.21,2.59-6.95,0-.96-.14-1.86-.43-2.7s-.79-1.64-1.51-2.41c-.38-.48-.7-.88-.94-1.19-.24-.31-.36-.71-.36-1.19,0-.86.4-1.66,1.19-2.38s1.73-1.31,2.81-1.76,2.05-.68,2.92-.68c1.3,0,2.14.6,2.52,1.8.38,1.2.58,2.57.58,4.1,0,2.59-.37,5.29-1.12,8.1-.74,2.81-1.81,5.45-3.2,7.92-1.39,2.47-3.1,4.48-5.11,6.01-2.02,1.54-4.3,2.3-6.84,2.3s-4.37-.75-5.33-2.23c-.96-1.49-1.37-3.29-1.22-5.4-1.44,2.21-3.13,4.03-5.08,5.47-1.94,1.44-3.95,2.16-6.01,2.16Z"/>
      <path class="cls-1" d="m179.28,49.9c-3.31,0-5.96-.9-7.96-2.7-1.99-1.8-2.99-4.45-2.99-7.96,0-1.63.23-3.21.68-4.75.46-1.54,1.07-2.98,1.84-4.32-.77.48-1.34.72-1.73.72-.58,0-.97-.32-1.19-.97-.22-.65-.32-1.28-.32-1.91,0-1.1.23-1.98.68-2.63.46-.65.9-1.14,1.33-1.48,1.01-.86,2.59-1.81,4.75-2.84,2.16-1.03,4.75-1.55,7.78-1.55,4.13,0,7.33,1.15,9.61,3.46,2.28,2.3,3.42,5.52,3.42,9.65,0,3.22-.67,6.13-2.02,8.75-1.34,2.62-3.2,4.69-5.58,6.23-2.38,1.54-5.15,2.3-8.32,2.3Zm2.23-7.34c2.4,0,4.43-.76,6.08-2.27,1.66-1.51,2.48-3.52,2.48-6.01s-.84-4.44-2.52-5.54c-1.68-1.1-3.62-1.66-5.83-1.66-1.01,0-1.92.1-2.74.29-.82.19-1.58.43-2.3.72-.67.96-1.27,2.04-1.8,3.24-.53,1.2-.79,2.52-.79,3.96,0,2.4.72,4.21,2.16,5.44s3.19,1.84,5.26,1.84Z"/>
      <path class="cls-1" d="m211.39,49.9c-3.31,0-5.96-.9-7.96-2.7-1.99-1.8-2.99-4.45-2.99-7.96,0-1.63.23-3.21.68-4.75.46-1.54,1.07-2.98,1.84-4.32-.77.48-1.34.72-1.73.72-.58,0-.97-.32-1.19-.97-.22-.65-.32-1.28-.32-1.91,0-1.1.23-1.98.68-2.63.46-.65.9-1.14,1.33-1.48,1.01-.86,2.59-1.81,4.75-2.84,2.16-1.03,4.75-1.55,7.78-1.55,4.13,0,7.33,1.15,9.61,3.46,2.28,2.3,3.42,5.52,3.42,9.65,0,3.22-.67,6.13-2.02,8.75-1.34,2.62-3.2,4.69-5.58,6.23-2.38,1.54-5.15,2.3-8.32,2.3Zm2.23-7.34c2.4,0,4.43-.76,6.08-2.27,1.66-1.51,2.48-3.52,2.48-6.01s-.84-4.44-2.52-5.54c-1.68-1.1-3.62-1.66-5.83-1.66-1.01,0-1.92.1-2.74.29-.82.19-1.58.43-2.3.72-.67.96-1.27,2.04-1.8,3.24-.53,1.2-.79,2.52-.79,3.96,0,2.4.72,4.21,2.16,5.44s3.19,1.84,5.26,1.84Z"/>
      <path class="cls-1" d="m241.13,49.9c-2.88,0-5.15-.96-6.8-2.88-1.66-1.92-2.48-4.54-2.48-7.85,0-2.45.4-4.85,1.19-7.2.79-2.35,1.91-4.46,3.35-6.34s3.12-3.36,5.04-4.46c1.92-1.1,4.01-1.66,6.26-1.66,1.44,0,2.72.22,3.85.65,1.13.43,2.12.98,2.99,1.66-.05-3.26-.22-6.19-.5-8.78-.29-2.59-.98-4.99-2.09-7.2-.19-.38-.35-.73-.47-1.04-.12-.31-.18-.61-.18-.9,0-.67.28-1.3.83-1.87.55-.58,1.24-1.05,2.05-1.44.82-.38,1.58-.58,2.3-.58,1.3,0,2.27.56,2.92,1.69.65,1.13,1.07,2.66,1.26,4.61.19,1.94.29,4.17.29,6.66,0,3.65-.17,6.94-.5,9.86-.34,2.93-.65,5.5-.94,7.7-.19,1.44-.36,2.69-.5,3.74-.14,1.06-.22,1.92-.22,2.59,0,3.41,1.46,5.42,4.39,6.05.77.14,1.15.65,1.15,1.51,0,.53-.16,1.2-.47,2.02-.31.82-.88,1.55-1.69,2.2-.82.65-1.99.97-3.53.97-2.06,0-3.46-.7-4.18-2.09-.72-1.39-1.08-3.5-1.08-6.34-1.34,2.45-3.05,4.51-5.11,6.19-2.06,1.68-4.44,2.52-7.13,2.52Zm2.23-7.7c1.34,0,2.69-.43,4.03-1.3,1.34-.86,2.54-2.04,3.6-3.53.62-.91,1.19-1.96,1.69-3.13.5-1.17.97-2.36,1.4-3.56-2.45-2.21-5.16-3.31-8.14-3.31-2.59,0-4.66.78-6.19,2.34-1.54,1.56-2.3,3.49-2.3,5.8,0,1.97.58,3.58,1.73,4.82,1.15,1.25,2.54,1.87,4.18,1.87Z"/>
      <path class="cls-1" d="m304.99,49.9c-3.31,0-6.29-.74-8.93-2.23-2.64-1.49-4.73-3.65-6.26-6.48-1.54-2.83-2.3-6.26-2.3-10.3,0-3.65.61-7.16,1.84-10.55,1.22-3.38,2.96-6.43,5.22-9.14,2.26-2.71,4.99-4.86,8.21-6.44,3.22-1.58,6.79-2.38,10.73-2.38,2.88,0,5.28.46,7.2,1.37,1.92.91,2.88,2.26,2.88,4.03,0,.86-.23,1.72-.68,2.56-.46.84-1.04,1.55-1.76,2.12-.72.58-1.46.86-2.23.86-.48,0-.86-.12-1.15-.36-2.5-1.68-5.33-2.52-8.5-2.52-3.36,0-6.19.78-8.5,2.34-2.3,1.56-4.04,3.61-5.22,6.16-1.18,2.54-1.76,5.3-1.76,8.28,0,4.46,1.26,8.02,3.78,10.66s5.89,3.96,10.12,3.96c1.82,0,3.53-.26,5.11-.79s2.88-1.3,3.89-2.3c1.01-1.01,1.51-2.23,1.51-3.67s-.43-2.54-1.3-3.31c-.86-.77-1.99-1.33-3.38-1.69-1.39-.36-2.9-.59-4.54-.68-1.15-.1-2-.24-2.56-.43-.55-.19-.83-.77-.83-1.73,0-1.15.36-2.11,1.08-2.88.72-.77,1.61-1.2,2.66-1.3,1.44-.14,3.17-.25,5.18-.32,2.02-.07,4.12-.12,6.3-.14,2.18-.02,4.24-.04,6.16-.04.62,0,1.1.11,1.44.32.33.22.5.66.5,1.33,0,.82-.18,1.71-.54,2.66-.36.96-.85,1.78-1.48,2.45-.62.67-1.34,1.01-2.16,1.01h-1.15c.14.48.28,1.02.4,1.62.12.6.18,1.29.18,2.05,0,2.11-.5,4.12-1.51,6.01s-2.4,3.59-4.18,5.08c-1.78,1.49-3.82,2.66-6.12,3.53-2.3.86-4.75,1.3-7.34,1.3Z"/>
      <path class="cls-1" d="m336.74,49.75c-.77,0-1.38-.13-1.84-.4-.46-.26-.61-.71-.47-1.33.53-2.06.97-4.16,1.33-6.3.36-2.13.54-4.19.54-6.16,0-2.54-.16-4.4-.47-5.58-.31-1.17-.73-1.99-1.26-2.45-.53-.46-1.18-.8-1.94-1.04-.34-.14-.64-.34-.9-.58-.26-.24-.4-.58-.4-1.01,0-.67.26-1.42.79-2.23.53-.82,1.27-1.52,2.23-2.12.96-.6,2.06-.9,3.31-.9,1.63,0,2.77.57,3.42,1.69.65,1.13.97,2.6.97,4.43.86-1.92,1.93-3.44,3.2-4.57,1.27-1.13,2.87-1.69,4.79-1.69,1.3,0,2.38.29,3.24.86.86.58,1.3,1.51,1.3,2.81s-.42,2.51-1.26,3.64c-.84,1.13-1.69,1.69-2.56,1.69-.14,0-.31-.02-.5-.07-.19-.05-.36-.17-.5-.36-.62-.77-1.39-1.15-2.3-1.15-1.39,0-2.62.91-3.67,2.74-1.06,1.82-1.63,4.34-1.73,7.56.05,1.2.08,2.42.11,3.67.02,1.25.04,2.16.04,2.74,0,1.78-.49,3.24-1.48,4.39-.98,1.15-2.32,1.73-4,1.73Z"/>
      <path class="cls-1" d="m366.04,49.9c-3.65,0-6.49-1.04-8.53-3.13-2.04-2.09-3.06-5-3.06-8.75,0-3.41.74-6.5,2.23-9.29,1.49-2.78,3.49-5,6.01-6.66,2.52-1.66,5.29-2.48,8.32-2.48s5.18.71,6.91,2.12,2.59,3.3,2.59,5.65c0,1.87-.58,3.6-1.73,5.18s-2.69,2.84-4.61,3.78c-1.92.94-4.06,1.4-6.41,1.4-2.88,0-5.23-.65-7.06-1.94.05,2.21.8,3.98,2.27,5.33,1.46,1.34,3.35,2.02,5.65,2.02,1.39,0,2.82-.25,4.29-.76,1.46-.5,2.72-1.19,3.78-2.05.67-.58,1.3-.86,1.87-.86.48,0,.88.16,1.19.47.31.31.47.71.47,1.19,0,1.06-.91,2.45-2.73,4.18-3.22,3.07-7.03,4.61-11.45,4.61Zm1.08-16.92c1.73,0,3.17-.36,4.32-1.08s1.73-1.63,1.73-2.74c0-.91-.38-1.62-1.15-2.12-.77-.5-1.82-.76-3.17-.76-1.78,0-3.32.47-4.64,1.4-1.32.94-2.27,2.24-2.84,3.92.67.43,1.54.77,2.59,1.01,1.05.24,2.11.36,3.17.36Z"/>
      <path class="cls-1" d="m396.36,49.9c-3.65,0-6.49-1.04-8.53-3.13-2.04-2.09-3.06-5-3.06-8.75,0-3.41.74-6.5,2.23-9.29,1.49-2.78,3.49-5,6.01-6.66,2.52-1.66,5.29-2.48,8.32-2.48s5.18.71,6.91,2.12c1.73,1.42,2.59,3.3,2.59,5.65,0,1.87-.58,3.6-1.73,5.18-1.15,1.58-2.69,2.84-4.61,3.78-1.92.94-4.06,1.4-6.41,1.4-2.88,0-5.23-.65-7.06-1.94.05,2.21.8,3.98,2.27,5.33,1.46,1.34,3.35,2.02,5.65,2.02,1.39,0,2.82-.25,4.28-.76,1.46-.5,2.72-1.19,3.78-2.05.67-.58,1.3-.86,1.87-.86.48,0,.88.16,1.19.47.31.31.47.71.47,1.19,0,1.06-.91,2.45-2.74,4.18-3.22,3.07-7.03,4.61-11.45,4.61Zm1.08-16.92c1.73,0,3.17-.36,4.32-1.08,1.15-.72,1.73-1.63,1.73-2.74,0-.91-.38-1.62-1.15-2.12-.77-.5-1.82-.76-3.17-.76-1.78,0-3.32.47-4.64,1.4-1.32.94-2.27,2.24-2.84,3.92.67.43,1.54.77,2.59,1.01,1.05.24,2.11.36,3.17.36Z"/>
      <path class="cls-1" d="m419.68,49.75c-1.73,0-2.5-.58-2.3-1.73.53-2.06.97-4.16,1.33-6.3.36-2.13.54-4.19.54-6.16,0-2.54-.16-4.4-.47-5.58-.31-1.17-.73-1.99-1.26-2.45-.53-.46-1.18-.8-1.94-1.04-.34-.14-.64-.34-.9-.58s-.4-.58-.4-1.01c0-.67.26-1.42.79-2.23.53-.82,1.28-1.52,2.27-2.12.98-.6,2.1-.9,3.35-.9,1.63,0,2.76.57,3.38,1.69.62,1.13.94,2.6.94,4.43,0,1.2-.12,2.54-.36,4.03-.24,1.49-.48,2.83-.72,4.03l.22.07c.96-2.54,2.12-4.91,3.49-7.09,1.37-2.18,2.96-3.95,4.79-5.29,1.82-1.34,3.94-2.02,6.34-2.02,2.54,0,4.49.77,5.83,2.3,1.34,1.54,2.02,3.46,2.02,5.76,0,.96-.11,1.87-.32,2.74s-.44,1.7-.68,2.52c-.24.77-.45,1.56-.61,2.38-.17.82-.25,1.63-.25,2.45,0,2.74,1.3,4.58,3.89,5.54.67.29,1.01.72,1.01,1.3,0,.43-.14,1.06-.43,1.87s-.82,1.57-1.58,2.27c-.77.7-1.9,1.04-3.38,1.04-1.92,0-3.41-.68-4.46-2.05-1.06-1.37-1.58-3.11-1.58-5.22,0-1.2.13-2.41.4-3.64.26-1.22.54-2.36.83-3.42.19-.82.37-1.62.54-2.41.17-.79.25-1.5.25-2.12,0-2.21-1.15-3.31-3.46-3.31-1.97,0-3.7.73-5.18,2.2-1.49,1.46-2.76,3.3-3.82,5.51-1.06,2.21-1.92,4.44-2.59,6.7v1.73c0,1.78-.49,3.24-1.48,4.39-.98,1.15-2.32,1.73-4,1.73Z"/>
    </g>
  </g>
</svg>