<?xml version="1.0" encoding="UTF-8"?>
<svg id="Layer_2" data-name="Layer 2" xmlns="http://www.w3.org/2000/svg" viewBox="0 0 444.93 49.48">
  <defs>
    <style>
      .cls-1 {
        fill: #0e4d27;
      }
    </style>
  </defs>
  <g id="Layer_1-2" data-name="Layer 1">
    <g>
      <path class="cls-1" d="m3.28,49.2c-.57,0-1.14-.1-1.71-.29-.57-.19-1-.64-1.31-1.35-.3-.71-.35-1.81-.14-3.28.13-.95.4-2.2.81-3.74.41-1.54.95-3.55,1.63-6.02.46-1.57,1.03-3.67,1.71-6.31.68-2.64,1.22-5.41,1.63-8.31.18-1.28.32-2.65.43-4.1.11-1.45.1-2.77-.01-3.96-.59.14-1.03.21-1.31.21s-.49-.08-.61-.25c-.12-.17-.15-.49-.08-.96.13-.95.38-1.91.73-2.89.35-.97.81-1.79,1.38-2.46.57-.66,1.19-1.14,1.88-1.43.68-.29,1.39-.47,2.11-.57,1.21-.14,2.74-.27,4.58-.39,1.85-.12,3.79-.23,5.82-.32,2.03-.09,3.88-.14,5.55-.14,2.23,0,3.88.02,4.94.07,1.06.05,1.87.12,2.43.21,1.21.19,1.73.86,1.57,2-.11.81-.37,1.53-.77,2.17-.4.64-.85,1.22-1.35,1.75-.63.76-1.26,1.3-1.9,1.6-.64.31-1.43.42-2.36.32-.8-.09-1.89-.18-3.28-.25-1.39-.07-2.99-.11-4.8-.11-.76,0-1.76.02-3.01.07-1.24.05-2.56.12-3.95.21-.27,1.62-.68,3.46-1.2,5.53-.53,2.07-1.08,4.17-1.67,6.31,1.3-.09,2.85-.18,4.67-.25,1.82-.07,3.68-.13,5.59-.18,1.91-.05,3.6-.07,5.07-.07.86,0,1.46.11,1.81.32.35.21.48.68.38,1.39-.11.81-.44,1.68-.97,2.6-.53.93-1.17,1.72-1.9,2.39-.74.67-1.46.97-2.16.93-1.18-.09-2.84-.17-5-.21-2.16-.05-4.42-.07-6.8-.07h-2.28c-.24,1.05-.47,2.08-.69,3.1-.21,1.02-.38,1.96-.5,2.82-.23,1.66-.27,3.13-.12,4.38.16,1.26.64,2.34,1.47,3.24.53.62.74,1.33.63,2.14-.15,1.05-.88,2-2.18,2.85-1.31.86-2.89,1.28-4.74,1.28Z"/>
      <path class="cls-1" d="m36.91,49.41c-3.61,0-6.28-1.03-8.01-3.1s-2.33-4.96-1.81-8.66c.47-3.37,1.64-6.44,3.5-9.2,1.86-2.76,4.15-4.96,6.88-6.6,2.73-1.64,5.59-2.46,8.58-2.46s5.04.7,6.55,2.1c1.51,1.4,2.11,3.27,1.78,5.6-.26,1.85-1.07,3.56-2.43,5.13-1.36,1.57-3.06,2.82-5.09,3.74-2.03.93-4.21,1.39-6.54,1.39-2.85,0-5.09-.64-6.72-1.92-.26,2.19.24,3.95,1.5,5.28,1.26,1.33,3.03,2,5.32,2,1.38,0,2.83-.25,4.35-.75,1.52-.5,2.86-1.18,4.03-2.03.75-.57,1.4-.86,1.97-.86.47,0,.84.15,1.11.46.26.31.36.7.3,1.18-.15,1.05-1.24,2.42-3.29,4.13-3.61,3.04-7.6,4.56-11.98,4.56Zm3.42-16.75c1.71,0,3.19-.36,4.43-1.07,1.24-.71,1.94-1.62,2.09-2.71.13-.9-.16-1.6-.85-2.1-.69-.5-1.7-.75-3.03-.75-1.76,0-3.36.46-4.79,1.39-1.44.93-2.56,2.22-3.36,3.89.6.43,1.41.76,2.43,1,1.01.24,2.04.36,3.09.36Z"/>
      <path class="cls-1" d="m60.31,49.27c-.76,0-1.35-.13-1.76-.39-.42-.26-.51-.7-.28-1.32.81-2.04,1.54-4.12,2.19-6.24.65-2.12,1.12-4.15,1.39-6.1.35-2.52.46-4.36.31-5.53-.15-1.16-.45-1.97-.91-2.42-.46-.45-1.05-.79-1.78-1.03-.31-.14-.58-.33-.81-.57-.23-.24-.31-.57-.25-1,.09-.67.46-1.4,1.09-2.21.64-.81,1.47-1.51,2.51-2.1,1.03-.59,2.17-.89,3.4-.89,1.62,0,2.67.56,3.15,1.68s.6,2.58.35,4.38c1.12-1.9,2.39-3.41,3.81-4.53,1.42-1.12,3.08-1.68,4.98-1.68,1.28,0,2.31.29,3.09.86.78.57,1.07,1.5.89,2.78s-.77,2.48-1.75,3.6c-.99,1.12-1.91,1.68-2.77,1.68-.14,0-.31-.02-.49-.07-.18-.05-.33-.17-.45-.36-.51-.76-1.22-1.14-2.12-1.14-1.38,0-2.72.9-4.02,2.71-1.3,1.81-2.22,4.3-2.76,7.49-.12,1.19-.26,2.4-.4,3.64-.15,1.24-.26,2.14-.34,2.71-.25,1.76-.94,3.21-2.07,4.35-1.13,1.14-2.53,1.71-4.2,1.71Z"/>
      <path class="cls-1" d="m84.2,49.27c-1.71,0-2.39-.57-2.04-1.71.81-2.04,1.54-4.12,2.19-6.24.65-2.12,1.12-4.15,1.39-6.1.35-2.52.46-4.36.31-5.53-.15-1.16-.45-1.97-.91-2.42-.46-.45-1.05-.79-1.78-1.03-.31-.14-.58-.33-.81-.57-.23-.24-.31-.57-.25-1,.09-.67.46-1.4,1.09-2.21.64-.81,1.48-1.51,2.54-2.1,1.06-.59,2.2-.89,3.44-.89,1.62,0,2.66.56,3.12,1.68.46,1.12.56,2.58.31,4.38-.17,1.19-.47,2.52-.92,3.99-.45,1.47-.87,2.81-1.27,3.99l.2.07c1.3-2.52,2.79-4.86,4.44-7.02,1.66-2.16,3.48-3.91,5.48-5.24,1.99-1.33,4.18-2,6.56-2,2.52,0,4.34.76,5.45,2.28,1.12,1.52,1.52,3.42,1.19,5.7-.13.95-.37,1.85-.7,2.71-.33.86-.68,1.69-1.03,2.5-.35.76-.66,1.54-.94,2.35-.28.81-.48,1.62-.59,2.42-.38,2.71.65,4.54,3.08,5.49.62.29.9.71.82,1.28-.06.43-.29,1.05-.69,1.85s-1.03,1.56-1.88,2.25c-.86.69-2.02,1.03-3.5,1.03-1.9,0-3.28-.68-4.14-2.03-.86-1.35-1.14-3.08-.84-5.17.17-1.19.47-2.39.9-3.6.43-1.21.86-2.34,1.3-3.39.3-.81.59-1.6.87-2.39.28-.78.46-1.49.55-2.1.31-2.19-.68-3.28-2.96-3.28-1.95,0-3.76.72-5.44,2.17-1.68,1.45-3.19,3.27-4.55,5.45-1.35,2.19-2.52,4.4-3.5,6.63l-.24,1.71c-.25,1.76-.94,3.21-2.07,4.35-1.13,1.14-2.53,1.71-4.2,1.71Z"/>
      <path class="cls-1" d="m127.45,49.48c-1.33,0-2.4-.39-3.22-1.18-.82-.78-1.15-2.25-.99-4.38.13-1.62.18-3.42.16-5.42-.03-2-.13-3.87-.31-5.63s-.49-3.09-.94-3.99c-.26-.52-.57-.92-.94-1.18-.37-.26-.95-.44-1.74-.54-.85-.05-1.19-.67-1.02-1.85.27-1.95,1-3.39,2.17-4.31,1.18-.93,2.43-1.39,3.76-1.39,1.43,0,2.52.46,3.3,1.39.77.93,1.3,2.16,1.58,3.71.28,1.54.4,3.27.34,5.17-.05,1.9-.22,3.83-.49,5.78-.1.71-.21,1.42-.33,2.1-.12.69-.23,1.37-.32,2.03-.07.48-.03.87.12,1.18.15.31.6.46,1.36.46,1.04,0,2.32-.27,3.82-.82,1.5-.55,2.88-1.46,4.13-2.75,1.25-1.28,2.02-2.99,2.33-5.13.15-1.09.11-2.01-.11-2.74-.23-.74-.58-1.44-1.06-2.1-.16-.24-.29-.47-.4-.71-.11-.24-.14-.52-.09-.86.13-.9.6-1.63,1.41-2.17.81-.55,1.7-.95,2.67-1.21s1.75-.39,2.37-.39,1.08.15,1.4.46c.31.31.5.92.56,1.82.1.62.15,1.29.14,2.03,0,.74-.08,1.58-.21,2.53-.21,1.47-.43,2.66-.68,3.57-.25.9-.49,1.71-.73,2.42-.23.62-.42,1.22-.58,1.82-.15.59-.29,1.3-.4,2.1-.12.86-.03,1.43.26,1.71.29.29.8.43,1.51.43,2.71,0,5.05-.94,7.03-2.82,1.98-1.88,3.15-4.17,3.53-6.88.13-.95.12-1.84-.05-2.67-.17-.83-.56-1.63-1.16-2.39-.32-.47-.57-.87-.76-1.18-.19-.31-.26-.7-.19-1.18.12-.86.62-1.64,1.51-2.35s1.89-1.29,3.03-1.75c1.13-.45,2.13-.68,2.98-.68,1.28,0,2.03.59,2.25,1.78.21,1.19.21,2.54,0,4.06-.36,2.57-1.11,5.24-2.23,8.02-1.13,2.78-2.55,5.4-4.27,7.84-1.72,2.45-3.69,4.43-5.9,5.95-2.21,1.52-4.57,2.28-7.09,2.28s-4.22-.74-4.96-2.21c-.75-1.47-.9-3.26-.46-5.35-1.73,2.19-3.66,3.99-5.79,5.42-2.12,1.43-4.21,2.14-6.25,2.14Z"/>
      <path class="cls-1" d="m176.44,49.41c-3.28,0-5.78-.89-7.5-2.67-1.72-1.78-2.34-4.41-1.85-7.88.23-1.61.67-3.18,1.34-4.71.67-1.52,1.47-2.95,2.42-4.28-.83.48-1.43.71-1.81.71-.57,0-.92-.32-1.04-.96-.12-.64-.14-1.27-.06-1.89.15-1.09.5-1.96,1.04-2.6.54-.64,1.05-1.13,1.52-1.46,1.12-.86,2.82-1.79,5.1-2.82,2.28-1.02,4.92-1.53,7.92-1.53,4.09,0,7.1,1.14,9.04,3.42,1.94,2.28,2.62,5.47,2.04,9.55-.45,3.19-1.52,6.07-3.21,8.66-1.69,2.59-3.83,4.65-6.39,6.17-2.57,1.52-5.42,2.28-8.56,2.28Zm3.23-7.27c2.38,0,4.49-.75,6.34-2.25s2.95-3.48,3.3-5.95c.36-2.57-.21-4.4-1.72-5.49-1.51-1.09-3.36-1.64-5.54-1.64-1,0-1.92.1-2.75.29-.84.19-1.63.43-2.38.71-.8.95-1.54,2.02-2.23,3.21-.69,1.19-1.13,2.5-1.34,3.92-.33,2.38.13,4.17,1.38,5.38,1.26,1.21,2.9,1.82,4.95,1.82Z"/>
      <path class="cls-1" d="m208.24,49.41c-3.28,0-5.78-.89-7.5-2.67-1.72-1.78-2.34-4.41-1.85-7.88.23-1.61.67-3.18,1.34-4.71.67-1.52,1.47-2.95,2.42-4.28-.83.48-1.43.71-1.81.71-.57,0-.92-.32-1.04-.96-.12-.64-.14-1.27-.06-1.89.15-1.09.5-1.96,1.04-2.6.54-.64,1.05-1.13,1.52-1.46,1.12-.86,2.82-1.79,5.1-2.82,2.28-1.02,4.92-1.53,7.92-1.53,4.09,0,7.1,1.14,9.04,3.42,1.94,2.28,2.62,5.47,2.04,9.55-.45,3.19-1.52,6.07-3.21,8.66-1.69,2.59-3.83,4.65-6.39,6.17-2.57,1.52-5.42,2.28-8.56,2.28Zm3.23-7.27c2.38,0,4.49-.75,6.34-2.25s2.95-3.48,3.3-5.95c.36-2.57-.21-4.4-1.72-5.49-1.51-1.09-3.36-1.64-5.54-1.64-1,0-1.92.1-2.75.29-.84.19-1.63.43-2.38.71-.8.95-1.54,2.02-2.23,3.21-.69,1.19-1.13,2.5-1.34,3.92-.33,2.38.13,4.17,1.38,5.38,1.26,1.21,2.9,1.82,4.95,1.82Z"/>
      <path class="cls-1" d="m237.69,49.41c-2.85,0-4.97-.95-6.34-2.85s-1.83-4.49-1.37-7.77c.34-2.42,1.07-4.8,2.18-7.13,1.11-2.33,2.51-4.42,4.2-6.27,1.69-1.85,3.56-3.33,5.61-4.42,2.05-1.09,4.2-1.64,6.43-1.64,1.43,0,2.67.21,3.72.64,1.06.43,1.97.97,2.73,1.64.41-3.23.65-6.13.72-8.7.08-2.57-.28-4.94-1.07-7.13-.14-.38-.24-.72-.32-1.03-.08-.31-.09-.61-.05-.89.09-.67.45-1.28,1.08-1.85.63-.57,1.37-1.04,2.23-1.43.86-.38,1.65-.57,2.36-.57,1.28,0,2.17.56,2.65,1.67.48,1.12.69,2.64.61,4.56-.08,1.93-.29,4.12-.64,6.6-.51,3.61-1.13,6.87-1.87,9.77-.74,2.9-1.41,5.44-2,7.63-.39,1.43-.73,2.66-1.02,3.71-.29,1.05-.48,1.9-.57,2.57-.47,3.38.7,5.37,3.51,5.99.74.14,1.05.64.93,1.5-.07.52-.32,1.19-.74,2-.42.81-1.08,1.53-1.98,2.17-.9.64-2.11.96-3.63.96-2.04,0-3.33-.69-3.84-2.07-.52-1.38-.58-3.47-.19-6.27-1.67,2.42-3.65,4.47-5.92,6.13-2.28,1.66-4.75,2.5-7.41,2.5Zm3.28-7.63c1.33,0,2.72-.43,4.17-1.28,1.45-.86,2.8-2.02,4.06-3.49.74-.9,1.45-1.94,2.11-3.1.66-1.16,1.29-2.34,1.89-3.53-2.12-2.19-4.65-3.28-7.6-3.28-2.57,0-4.72.77-6.46,2.32-1.74,1.54-2.77,3.46-3.09,5.74-.27,1.95.07,3.54,1.04,4.78.97,1.24,2.26,1.85,3.88,1.85Z"/>
      <path class="cls-1" d="m300.93,49.41c-3.28,0-6.12-.74-8.53-2.21-2.41-1.47-4.18-3.61-5.3-6.42-1.13-2.8-1.41-6.2-.85-10.2.51-3.61,1.6-7.09,3.29-10.45,1.68-3.35,3.83-6.37,6.44-9.05,2.61-2.68,5.62-4.81,9.02-6.38,3.4-1.57,7.06-2.35,10.95-2.35,2.85,0,5.17.45,6.94,1.35,1.77.9,2.54,2.23,2.29,3.99-.12.86-.47,1.7-1.03,2.53-.57.83-1.25,1.53-2.04,2.1-.79.57-1.57.86-2.33.86-.48,0-.84-.12-1.09-.36-2.24-1.66-4.93-2.5-8.06-2.5-3.33,0-6.24.77-8.74,2.32-2.5,1.54-4.51,3.58-6.03,6.1-1.52,2.52-2.49,5.25-2.9,8.2-.62,4.42.13,7.94,2.26,10.55,2.13,2.62,5.28,3.92,9.47,3.92,1.81,0,3.53-.26,5.17-.78,1.64-.52,3.03-1.28,4.17-2.28,1.14-1,1.81-2.21,2.01-3.64.2-1.43-.07-2.52-.82-3.28-.75-.76-1.79-1.32-3.12-1.67-1.33-.36-2.79-.58-4.4-.68-1.13-.09-1.95-.24-2.47-.43-.52-.19-.71-.76-.58-1.71.16-1.14.65-2.09,1.47-2.85.82-.76,1.76-1.19,2.82-1.28,1.45-.14,3.17-.25,5.18-.32,2.01-.07,4.09-.12,6.26-.14,2.17-.02,4.2-.04,6.1-.04.62,0,1.08.11,1.38.32.3.21.41.65.31,1.32-.11.81-.42,1.69-.91,2.64-.49.95-1.09,1.76-1.8,2.42-.71.67-1.47,1-2.28,1h-1.14c.08.48.13,1.01.17,1.6.03.59,0,1.27-.11,2.03-.29,2.09-1.07,4.08-2.33,5.95-1.26,1.88-2.88,3.55-4.84,5.03-1.97,1.47-4.15,2.64-6.55,3.49-2.4.86-4.89,1.28-7.45,1.28Z"/>
      <path class="cls-1" d="m332.39,49.27c-.76,0-1.35-.13-1.76-.39-.42-.26-.51-.7-.28-1.32.81-2.04,1.54-4.12,2.19-6.24.65-2.12,1.12-4.15,1.39-6.1.35-2.52.46-4.36.31-5.53-.15-1.16-.45-1.97-.91-2.42-.46-.45-1.05-.79-1.78-1.03-.31-.14-.58-.33-.81-.57-.23-.24-.31-.57-.25-1,.09-.67.46-1.4,1.09-2.21.64-.81,1.47-1.51,2.51-2.1,1.03-.59,2.17-.89,3.4-.89,1.62,0,2.67.56,3.15,1.68s.6,2.58.35,4.38c1.12-1.9,2.39-3.41,3.81-4.53,1.42-1.12,3.08-1.68,4.98-1.68,1.28,0,2.31.29,3.09.86.78.57,1.07,1.5.89,2.78s-.77,2.48-1.75,3.6c-.99,1.12-1.91,1.68-2.77,1.68-.14,0-.31-.02-.49-.07-.18-.05-.33-.17-.45-.36-.51-.76-1.22-1.14-2.12-1.14-1.38,0-2.72.9-4.02,2.71-1.3,1.81-2.22,4.3-2.76,7.49-.12,1.19-.26,2.4-.4,3.64-.15,1.24-.26,2.14-.34,2.71-.25,1.76-.94,3.21-2.07,4.35-1.13,1.14-2.53,1.71-4.2,1.71Z"/>
      <path class="cls-1" d="m361.39,49.41c-3.61,0-6.28-1.03-8.01-3.1s-2.33-4.96-1.81-8.66c.47-3.37,1.64-6.44,3.5-9.2,1.86-2.76,4.15-4.96,6.88-6.6,2.72-1.64,5.59-2.46,8.58-2.46s5.04.7,6.55,2.1c1.51,1.4,2.11,3.27,1.78,5.6-.26,1.85-1.07,3.56-2.43,5.13-1.36,1.57-3.06,2.82-5.09,3.74-2.03.93-4.21,1.39-6.54,1.39-2.85,0-5.09-.64-6.72-1.92-.26,2.19.24,3.95,1.5,5.28,1.26,1.33,3.03,2,5.32,2,1.38,0,2.83-.25,4.35-.75,1.52-.5,2.86-1.18,4.03-2.03.75-.57,1.4-.86,1.97-.86.47,0,.84.15,1.11.46.26.31.36.7.3,1.18-.15,1.05-1.24,2.42-3.29,4.13-3.61,3.04-7.6,4.56-11.98,4.56Zm3.42-16.75c1.71,0,3.19-.36,4.43-1.07,1.24-.71,1.94-1.62,2.09-2.71.13-.9-.16-1.6-.85-2.1s-1.7-.75-3.03-.75c-1.76,0-3.36.46-4.79,1.39-1.44.93-2.56,2.22-3.36,3.89.6.43,1.41.76,2.43,1,1.01.24,2.04.36,3.09.36Z"/>
      <path class="cls-1" d="m391.41,49.41c-3.61,0-6.28-1.03-8.01-3.1-1.73-2.07-2.33-4.96-1.81-8.66.47-3.37,1.64-6.44,3.5-9.2,1.86-2.76,4.16-4.96,6.88-6.6,2.73-1.64,5.59-2.46,8.58-2.46s5.04.7,6.55,2.1c1.51,1.4,2.11,3.27,1.78,5.6-.26,1.85-1.07,3.56-2.43,5.13-1.36,1.57-3.06,2.82-5.09,3.74-2.03.93-4.21,1.39-6.54,1.39-2.85,0-5.09-.64-6.72-1.92-.26,2.19.24,3.95,1.5,5.28s3.04,2,5.32,2c1.38,0,2.83-.25,4.35-.75,1.52-.5,2.86-1.18,4.03-2.03.75-.57,1.4-.86,1.97-.86.47,0,.84.15,1.11.46.26.31.36.7.3,1.18-.15,1.05-1.24,2.42-3.29,4.13-3.61,3.04-7.6,4.56-11.98,4.56Zm3.42-16.75c1.71,0,3.19-.36,4.43-1.07s1.94-1.62,2.09-2.71c.13-.9-.16-1.6-.84-2.1-.69-.5-1.7-.75-3.03-.75-1.76,0-3.36.46-4.79,1.39-1.44.93-2.56,2.22-3.36,3.89.6.43,1.41.76,2.43,1,1.01.24,2.04.36,3.09.36Z"/>
      <path class="cls-1" d="m414.53,49.27c-1.71,0-2.39-.57-2.04-1.71.81-2.04,1.54-4.12,2.19-6.24.65-2.12,1.12-4.15,1.39-6.1.35-2.52.46-4.36.31-5.53-.15-1.16-.45-1.97-.91-2.42-.46-.45-1.05-.79-1.78-1.03-.31-.14-.58-.33-.81-.57-.23-.24-.31-.57-.25-1,.09-.67.46-1.4,1.09-2.21.64-.81,1.48-1.51,2.54-2.1,1.06-.59,2.2-.89,3.44-.89,1.62,0,2.66.56,3.12,1.68.46,1.12.56,2.58.31,4.38-.17,1.19-.47,2.52-.92,3.99-.45,1.47-.87,2.81-1.27,3.99l.2.07c1.3-2.52,2.79-4.86,4.44-7.02,1.66-2.16,3.48-3.91,5.48-5.24,1.99-1.33,4.18-2,6.56-2,2.52,0,4.34.76,5.45,2.28,1.12,1.52,1.52,3.42,1.2,5.7-.13.95-.37,1.85-.7,2.71-.33.86-.68,1.69-1.03,2.5-.34.76-.66,1.54-.94,2.35-.28.81-.48,1.62-.59,2.42-.38,2.71.65,4.54,3.08,5.49.62.29.9.71.82,1.28-.06.43-.29,1.05-.69,1.85-.4.81-1.03,1.56-1.88,2.25-.86.69-2.02,1.03-3.5,1.03-1.9,0-3.28-.68-4.13-2.03-.86-1.35-1.14-3.08-.84-5.17.17-1.19.46-2.39.9-3.6.43-1.21.86-2.34,1.3-3.39.3-.81.59-1.6.87-2.39.28-.78.46-1.49.55-2.1.31-2.19-.68-3.28-2.96-3.28-1.95,0-3.76.72-5.44,2.17-1.68,1.45-3.19,3.27-4.55,5.45-1.35,2.19-2.52,4.4-3.5,6.63l-.24,1.71c-.25,1.76-.94,3.21-2.07,4.35-1.14,1.14-2.54,1.71-4.2,1.71Z"/>
    </g>
  </g>
</svg>